<svg xmlns="http://www.w3.org/2000/svg" width="8" height="16" viewBox="0 0 8 16" fill="none">
    <path d="M6.79236 15.4038L0.444431 8.0001L6.79236 0.596428C6.95089 0.411536 7.22525 0.392869 7.40642 0.554649C7.58847 0.71643 7.60589 0.997323 7.44736 1.18133L1.60201 8.0001L7.44736 14.8189C7.51966 14.9033 7.55537 15.0073 7.55537 15.1113C7.55537 15.2349 7.50485 15.3576 7.40642 15.4456C7.24538 15.5894 7.01071 15.5906 6.84921 15.4592L6.79236 15.4038Z" fill="#666666"/>
    <mask id="mask0_1_427" style="mask-type:luminance" maskUnits="userSpaceOnUse" x="0" y="0" width="8" height="16">
        <path d="M6.79236 15.4038L0.444431 8.0001L6.79236 0.596428C6.95089 0.411536 7.22525 0.392869 7.40642 0.554649C7.58847 0.71643 7.60589 0.997323 7.44736 1.18133L1.60201 8.0001L7.44736 14.8189C7.51966 14.9033 7.55537 15.0073 7.55537 15.1113C7.55537 15.2349 7.50485 15.3576 7.40642 15.4456C7.24538 15.5894 7.01071 15.5906 6.84921 15.4592L6.79236 15.4038Z" fill="white"/>
    </mask>
    <g mask="url(#mask0_1_427)">
    </g>
</svg>
