<svg xmlns="http://www.w3.org/2000/svg" width="24" height="20" viewBox="0 0 24 20" fill="none">
    <g clip-path="url(#clip0_117_8010)">
        <path d="M9.0589 20C10.0335 20 10.8236 19.2099 10.8236 18.2353C10.8236 17.2607 10.0335 16.4706 9.0589 16.4706C8.08428 16.4706 7.29419 17.2607 7.29419 18.2353C7.29419 19.2099 8.08428 20 9.0589 20Z" fill="black"/>
        <path d="M18.4705 20C19.4451 20 20.2352 19.2099 20.2352 18.2353C20.2352 17.2607 19.4451 16.4706 18.4705 16.4706C17.4959 16.4706 16.7058 17.2607 16.7058 18.2353C16.7058 19.2099 17.4959 20 18.4705 20Z" fill="black"/>
        <path d="M1.41187 1.17648H4.82363L8.11775 12.1177L20.2351 11.1177L22.5883 4.70589H6.11775" stroke="black" stroke-width="1.75" stroke-linecap="round" stroke-linejoin="round"/>
        <path d="M8 12L7.03647 13.4453C6.59343 14.1099 7.06982 15 7.86852 15H20" stroke="black" stroke-width="1.75" stroke-linecap="round"/>
    </g>
    <defs>
        <clipPath id="clip0_117_8010">
            <rect width="23.5294" height="20" fill="white" transform="translate(0.235352)"/>
        </clipPath>
    </defs>
</svg>
